<mxfile host="65bd71144e">
    <diagram id="SNCsOGaZnjFMj7DxNVLL" name="第 1 页">
        <mxGraphModel dx="358" dy="761" grid="1" gridSize="10" guides="1" tooltips="1" connect="1" arrows="1" fold="1" page="1" pageScale="1" pageWidth="827" pageHeight="1169" background="none" math="0" shadow="0">
            <root>
                <mxCell id="0"/>
                <mxCell id="1" parent="0"/>
                <mxCell id="mCIN7De--0jaUGF8LTBi-9" style="rounded=0;orthogonalLoop=1;jettySize=auto;html=1;" parent="1" source="mCIN7De--0jaUGF8LTBi-1" target="mCIN7De--0jaUGF8LTBi-4" edge="1">
                    <mxGeometry relative="1" as="geometry"/>
                </mxCell>
                <mxCell id="kSDEP7lgRS-kwZj5m8_e-8" value="2" style="edgeLabel;html=1;align=center;verticalAlign=middle;resizable=0;points=[];" parent="mCIN7De--0jaUGF8LTBi-9" vertex="1" connectable="0">
                    <mxGeometry x="0.26" y="-2" relative="1" as="geometry">
                        <mxPoint as="offset"/>
                    </mxGeometry>
                </mxCell>
                <mxCell id="mCIN7De--0jaUGF8LTBi-11" style="rounded=0;orthogonalLoop=1;jettySize=auto;html=1;entryX=0.5;entryY=0;entryDx=0;entryDy=0;" parent="1" source="mCIN7De--0jaUGF8LTBi-1" target="mCIN7De--0jaUGF8LTBi-2" edge="1">
                    <mxGeometry relative="1" as="geometry"/>
                </mxCell>
                <mxCell id="kSDEP7lgRS-kwZj5m8_e-1" value="7" style="edgeLabel;html=1;align=center;verticalAlign=middle;resizable=0;points=[];" parent="mCIN7De--0jaUGF8LTBi-11" vertex="1" connectable="0">
                    <mxGeometry x="-0.0526" y="-2" relative="1" as="geometry">
                        <mxPoint as="offset"/>
                    </mxGeometry>
                </mxCell>
                <mxCell id="mCIN7De--0jaUGF8LTBi-12" style="rounded=0;orthogonalLoop=1;jettySize=auto;html=1;" parent="1" source="mCIN7De--0jaUGF8LTBi-1" target="mCIN7De--0jaUGF8LTBi-7" edge="1">
                    <mxGeometry relative="1" as="geometry"/>
                </mxCell>
                <mxCell id="kSDEP7lgRS-kwZj5m8_e-2" value="12" style="edgeLabel;html=1;align=center;verticalAlign=middle;resizable=0;points=[];" parent="mCIN7De--0jaUGF8LTBi-12" vertex="1" connectable="0">
                    <mxGeometry x="-0.0193" y="1" relative="1" as="geometry">
                        <mxPoint x="1" as="offset"/>
                    </mxGeometry>
                </mxCell>
                <object label="1" in="0" out="3" weight="" id="mCIN7De--0jaUGF8LTBi-1">
                    <mxCell style="ellipse;whiteSpace=wrap;html=1;aspect=fixed;" parent="1" vertex="1">
                        <mxGeometry x="182" y="40" width="30" height="30" as="geometry"/>
                    </mxCell>
                </object>
                <mxCell id="mCIN7De--0jaUGF8LTBi-14" style="rounded=0;orthogonalLoop=1;jettySize=auto;html=1;entryX=0.5;entryY=0;entryDx=0;entryDy=0;" parent="1" source="mCIN7De--0jaUGF8LTBi-2" target="mCIN7De--0jaUGF8LTBi-5" edge="1">
                    <mxGeometry relative="1" as="geometry">
                        <mxPoint x="67" y="290" as="targetPoint"/>
                    </mxGeometry>
                </mxCell>
                <mxCell id="kSDEP7lgRS-kwZj5m8_e-7" value="4" style="edgeLabel;html=1;align=center;verticalAlign=middle;resizable=0;points=[];" parent="mCIN7De--0jaUGF8LTBi-14" vertex="1" connectable="0">
                    <mxGeometry x="-0.16" y="1" relative="1" as="geometry">
                        <mxPoint as="offset"/>
                    </mxGeometry>
                </mxCell>
                <mxCell id="mCIN7De--0jaUGF8LTBi-18" style="edgeStyle=none;rounded=0;orthogonalLoop=1;jettySize=auto;html=1;entryX=0;entryY=0.5;entryDx=0;entryDy=0;" parent="1" source="mCIN7De--0jaUGF8LTBi-2" target="mCIN7De--0jaUGF8LTBi-4" edge="1">
                    <mxGeometry relative="1" as="geometry"/>
                </mxCell>
                <mxCell id="kSDEP7lgRS-kwZj5m8_e-3" value="3" style="edgeLabel;html=1;align=center;verticalAlign=middle;resizable=0;points=[];" parent="mCIN7De--0jaUGF8LTBi-18" vertex="1" connectable="0">
                    <mxGeometry x="-0.08" relative="1" as="geometry">
                        <mxPoint as="offset"/>
                    </mxGeometry>
                </mxCell>
                <object label="2" in="1" out="2" weight="" id="mCIN7De--0jaUGF8LTBi-2">
                    <mxCell style="ellipse;whiteSpace=wrap;html=1;aspect=fixed;" parent="1" vertex="1">
                        <mxGeometry x="52" y="170" width="30" height="30" as="geometry"/>
                    </mxCell>
                </object>
                <mxCell id="mCIN7De--0jaUGF8LTBi-16" style="edgeStyle=none;rounded=0;orthogonalLoop=1;jettySize=auto;html=1;entryX=0.5;entryY=0;entryDx=0;entryDy=0;" parent="1" source="mCIN7De--0jaUGF8LTBi-4" target="mCIN7De--0jaUGF8LTBi-6" edge="1">
                    <mxGeometry relative="1" as="geometry"/>
                </mxCell>
                <mxCell id="kSDEP7lgRS-kwZj5m8_e-5" value="10" style="edgeLabel;html=1;align=center;verticalAlign=middle;resizable=0;points=[];" parent="mCIN7De--0jaUGF8LTBi-16" vertex="1" connectable="0">
                    <mxGeometry x="-0.06" y="2" relative="1" as="geometry">
                        <mxPoint as="offset"/>
                    </mxGeometry>
                </mxCell>
                <object label="3" in="0" out="3" weight="" id="mCIN7De--0jaUGF8LTBi-4">
                    <mxCell style="ellipse;whiteSpace=wrap;html=1;aspect=fixed;" parent="1" vertex="1">
                        <mxGeometry x="182" y="170" width="30" height="30" as="geometry"/>
                    </mxCell>
                </object>
                <mxCell id="mCIN7De--0jaUGF8LTBi-13" style="orthogonalLoop=1;jettySize=auto;html=1;entryX=0;entryY=0.5;entryDx=0;entryDy=0;rounded=0;" parent="1" source="mCIN7De--0jaUGF8LTBi-5" target="mCIN7De--0jaUGF8LTBi-4" edge="1">
                    <mxGeometry relative="1" as="geometry"/>
                </mxCell>
                <mxCell id="kSDEP7lgRS-kwZj5m8_e-4" value="7" style="edgeLabel;html=1;align=center;verticalAlign=middle;resizable=0;points=[];" parent="mCIN7De--0jaUGF8LTBi-13" vertex="1" connectable="0">
                    <mxGeometry x="-0.0664" y="-4" relative="1" as="geometry">
                        <mxPoint as="offset"/>
                    </mxGeometry>
                </mxCell>
                <object label="7" in="1" out="1" weight="" id="mCIN7De--0jaUGF8LTBi-5">
                    <mxCell style="ellipse;whiteSpace=wrap;html=1;aspect=fixed;" parent="1" vertex="1">
                        <mxGeometry x="52" y="300" width="30" height="30" as="geometry"/>
                    </mxCell>
                </object>
                <object label="5" in="1" out="0" weight="" id="mCIN7De--0jaUGF8LTBi-6">
                    <mxCell style="ellipse;whiteSpace=wrap;html=1;aspect=fixed;" parent="1" vertex="1">
                        <mxGeometry x="182" y="300" width="30" height="30" as="geometry"/>
                    </mxCell>
                </object>
                <mxCell id="mCIN7De--0jaUGF8LTBi-17" style="edgeStyle=none;rounded=0;orthogonalLoop=1;jettySize=auto;html=1;" parent="1" source="mCIN7De--0jaUGF8LTBi-7" target="mCIN7De--0jaUGF8LTBi-8" edge="1">
                    <mxGeometry relative="1" as="geometry"/>
                </mxCell>
                <mxCell id="kSDEP7lgRS-kwZj5m8_e-6" value="5" style="edgeLabel;html=1;align=center;verticalAlign=middle;resizable=0;points=[];" parent="mCIN7De--0jaUGF8LTBi-17" vertex="1" connectable="0">
                    <mxGeometry x="0.06" y="1" relative="1" as="geometry">
                        <mxPoint as="offset"/>
                    </mxGeometry>
                </mxCell>
                <object label="4" in="0" out="3" weight="" id="mCIN7De--0jaUGF8LTBi-7">
                    <mxCell style="ellipse;whiteSpace=wrap;html=1;aspect=fixed;" parent="1" vertex="1">
                        <mxGeometry x="306" y="170" width="30" height="30" as="geometry"/>
                    </mxCell>
                </object>
                <object label="6" in="0" out="3" weight="" id="mCIN7De--0jaUGF8LTBi-8">
                    <mxCell style="ellipse;whiteSpace=wrap;html=1;aspect=fixed;" parent="1" vertex="1">
                        <mxGeometry x="306" y="300" width="30" height="30" as="geometry"/>
                    </mxCell>
                </object>
                <mxCell id="kSDEP7lgRS-kwZj5m8_e-9" style="rounded=0;orthogonalLoop=1;jettySize=auto;html=1;shape=link;strokeWidth=1;" parent="1" source="kSDEP7lgRS-kwZj5m8_e-15" target="kSDEP7lgRS-kwZj5m8_e-23" edge="1">
                    <mxGeometry relative="1" as="geometry"/>
                </mxCell>
                <mxCell id="kSDEP7lgRS-kwZj5m8_e-10" value="2" style="edgeLabel;html=1;align=center;verticalAlign=middle;resizable=0;points=[];" parent="kSDEP7lgRS-kwZj5m8_e-9" vertex="1" connectable="0">
                    <mxGeometry relative="1" as="geometry">
                        <mxPoint as="offset"/>
                    </mxGeometry>
                </mxCell>
                <mxCell id="kSDEP7lgRS-kwZj5m8_e-11" style="rounded=0;orthogonalLoop=1;jettySize=auto;html=1;entryX=0.5;entryY=0;entryDx=0;entryDy=0;shape=link;" parent="1" source="kSDEP7lgRS-kwZj5m8_e-15" target="kSDEP7lgRS-kwZj5m8_e-20" edge="1">
                    <mxGeometry relative="1" as="geometry"/>
                </mxCell>
                <mxCell id="kSDEP7lgRS-kwZj5m8_e-12" value="7" style="edgeLabel;html=1;align=center;verticalAlign=middle;resizable=0;points=[];" parent="kSDEP7lgRS-kwZj5m8_e-11" vertex="1" connectable="0">
                    <mxGeometry relative="1" as="geometry">
                        <mxPoint as="offset"/>
                    </mxGeometry>
                </mxCell>
                <mxCell id="kSDEP7lgRS-kwZj5m8_e-13" style="rounded=0;orthogonalLoop=1;jettySize=auto;html=1;shape=link;" parent="1" source="kSDEP7lgRS-kwZj5m8_e-15" target="kSDEP7lgRS-kwZj5m8_e-30" edge="1">
                    <mxGeometry relative="1" as="geometry"/>
                </mxCell>
                <mxCell id="kSDEP7lgRS-kwZj5m8_e-14" value="12" style="edgeLabel;html=1;align=center;verticalAlign=middle;resizable=0;points=[];" parent="kSDEP7lgRS-kwZj5m8_e-13" vertex="1" connectable="0">
                    <mxGeometry relative="1" as="geometry">
                        <mxPoint x="1" as="offset"/>
                    </mxGeometry>
                </mxCell>
                <object label="1" in="0" out="3" weight="" id="kSDEP7lgRS-kwZj5m8_e-15">
                    <mxCell style="ellipse;whiteSpace=wrap;html=1;aspect=fixed;" parent="1" vertex="1">
                        <mxGeometry x="620" y="40" width="30" height="30" as="geometry"/>
                    </mxCell>
                </object>
                <mxCell id="kSDEP7lgRS-kwZj5m8_e-16" style="rounded=0;orthogonalLoop=1;jettySize=auto;html=1;entryX=0.5;entryY=0;entryDx=0;entryDy=0;shape=link;" parent="1" source="kSDEP7lgRS-kwZj5m8_e-20" target="kSDEP7lgRS-kwZj5m8_e-26" edge="1">
                    <mxGeometry relative="1" as="geometry">
                        <mxPoint x="507" y="290" as="targetPoint"/>
                    </mxGeometry>
                </mxCell>
                <mxCell id="kSDEP7lgRS-kwZj5m8_e-17" value="4" style="edgeLabel;html=1;align=center;verticalAlign=middle;resizable=0;points=[];" parent="kSDEP7lgRS-kwZj5m8_e-16" vertex="1" connectable="0">
                    <mxGeometry relative="1" as="geometry">
                        <mxPoint as="offset"/>
                    </mxGeometry>
                </mxCell>
                <mxCell id="kSDEP7lgRS-kwZj5m8_e-18" style="edgeStyle=none;rounded=0;orthogonalLoop=1;jettySize=auto;html=1;entryX=0;entryY=0.5;entryDx=0;entryDy=0;shape=link;" parent="1" source="kSDEP7lgRS-kwZj5m8_e-20" target="kSDEP7lgRS-kwZj5m8_e-23" edge="1">
                    <mxGeometry relative="1" as="geometry"/>
                </mxCell>
                <mxCell id="kSDEP7lgRS-kwZj5m8_e-19" value="3" style="edgeLabel;html=1;align=center;verticalAlign=middle;resizable=0;points=[];" parent="kSDEP7lgRS-kwZj5m8_e-18" vertex="1" connectable="0">
                    <mxGeometry relative="1" as="geometry">
                        <mxPoint as="offset"/>
                    </mxGeometry>
                </mxCell>
                <object label="2" in="1" out="2" weight="" id="kSDEP7lgRS-kwZj5m8_e-20">
                    <mxCell style="ellipse;whiteSpace=wrap;html=1;aspect=fixed;" parent="1" vertex="1">
                        <mxGeometry x="490" y="170" width="30" height="30" as="geometry"/>
                    </mxCell>
                </object>
                <mxCell id="kSDEP7lgRS-kwZj5m8_e-21" style="edgeStyle=none;rounded=0;orthogonalLoop=1;jettySize=auto;html=1;entryX=0.5;entryY=0;entryDx=0;entryDy=0;shape=link;" parent="1" source="kSDEP7lgRS-kwZj5m8_e-23" target="kSDEP7lgRS-kwZj5m8_e-27" edge="1">
                    <mxGeometry relative="1" as="geometry"/>
                </mxCell>
                <mxCell id="kSDEP7lgRS-kwZj5m8_e-22" value="10" style="edgeLabel;html=1;align=center;verticalAlign=middle;resizable=0;points=[];" parent="kSDEP7lgRS-kwZj5m8_e-21" vertex="1" connectable="0">
                    <mxGeometry relative="1" as="geometry">
                        <mxPoint x="-3" as="offset"/>
                    </mxGeometry>
                </mxCell>
                <object label="3" in="0" out="3" weight="" id="kSDEP7lgRS-kwZj5m8_e-23">
                    <mxCell style="ellipse;whiteSpace=wrap;html=1;aspect=fixed;" parent="1" vertex="1">
                        <mxGeometry x="620" y="170" width="30" height="30" as="geometry"/>
                    </mxCell>
                </object>
                <mxCell id="kSDEP7lgRS-kwZj5m8_e-24" style="orthogonalLoop=1;jettySize=auto;html=1;entryX=0;entryY=0.5;entryDx=0;entryDy=0;rounded=0;shape=link;" parent="1" source="kSDEP7lgRS-kwZj5m8_e-26" target="kSDEP7lgRS-kwZj5m8_e-23" edge="1">
                    <mxGeometry relative="1" as="geometry"/>
                </mxCell>
                <mxCell id="kSDEP7lgRS-kwZj5m8_e-25" value="7" style="edgeLabel;html=1;align=center;verticalAlign=middle;resizable=0;points=[];" parent="kSDEP7lgRS-kwZj5m8_e-24" vertex="1" connectable="0">
                    <mxGeometry relative="1" as="geometry">
                        <mxPoint as="offset"/>
                    </mxGeometry>
                </mxCell>
                <object label="7" in="1" out="1" weight="" id="kSDEP7lgRS-kwZj5m8_e-26">
                    <mxCell style="ellipse;whiteSpace=wrap;html=1;aspect=fixed;" parent="1" vertex="1">
                        <mxGeometry x="490" y="300" width="30" height="30" as="geometry"/>
                    </mxCell>
                </object>
                <object label="5" in="1" out="0" weight="" id="kSDEP7lgRS-kwZj5m8_e-27">
                    <mxCell style="ellipse;whiteSpace=wrap;html=1;aspect=fixed;" parent="1" vertex="1">
                        <mxGeometry x="620" y="300" width="30" height="30" as="geometry"/>
                    </mxCell>
                </object>
                <mxCell id="kSDEP7lgRS-kwZj5m8_e-28" style="edgeStyle=none;rounded=0;orthogonalLoop=1;jettySize=auto;html=1;shape=link;" parent="1" source="kSDEP7lgRS-kwZj5m8_e-30" target="kSDEP7lgRS-kwZj5m8_e-31" edge="1">
                    <mxGeometry relative="1" as="geometry"/>
                </mxCell>
                <mxCell id="kSDEP7lgRS-kwZj5m8_e-29" value="5" style="edgeLabel;html=1;align=center;verticalAlign=middle;resizable=0;points=[];" parent="kSDEP7lgRS-kwZj5m8_e-28" vertex="1" connectable="0">
                    <mxGeometry relative="1" as="geometry">
                        <mxPoint as="offset"/>
                    </mxGeometry>
                </mxCell>
                <object label="4" in="0" out="3" weight="" id="kSDEP7lgRS-kwZj5m8_e-30">
                    <mxCell style="ellipse;whiteSpace=wrap;html=1;aspect=fixed;" parent="1" vertex="1">
                        <mxGeometry x="750" y="170" width="30" height="30" as="geometry"/>
                    </mxCell>
                </object>
                <object label="6" in="0" out="3" weight="" id="kSDEP7lgRS-kwZj5m8_e-31">
                    <mxCell style="ellipse;whiteSpace=wrap;html=1;aspect=fixed;" parent="1" vertex="1">
                        <mxGeometry x="750" y="300" width="30" height="30" as="geometry"/>
                    </mxCell>
                </object>
                <mxCell id="oO5KlpTl5panV6UwtfpN-4" style="rounded=0;orthogonalLoop=1;jettySize=auto;html=1;entryX=0;entryY=1;entryDx=0;entryDy=0;shape=link;align=center;" parent="1" source="oO5KlpTl5panV6UwtfpN-1" target="oO5KlpTl5panV6UwtfpN-2" edge="1">
                    <mxGeometry relative="1" as="geometry"/>
                </mxCell>
                <mxCell id="oO5KlpTl5panV6UwtfpN-30" value="4" style="edgeLabel;html=1;align=center;verticalAlign=middle;resizable=0;points=[];fontSize=14;" parent="oO5KlpTl5panV6UwtfpN-4" vertex="1" connectable="0">
                    <mxGeometry relative="1" as="geometry">
                        <mxPoint as="offset"/>
                    </mxGeometry>
                </mxCell>
                <mxCell id="oO5KlpTl5panV6UwtfpN-5" style="edgeStyle=none;rounded=0;orthogonalLoop=1;jettySize=auto;html=1;exitX=1;exitY=1;exitDx=0;exitDy=0;entryX=0;entryY=0;entryDx=0;entryDy=0;shape=link;align=center;" parent="1" source="oO5KlpTl5panV6UwtfpN-1" target="oO5KlpTl5panV6UwtfpN-3" edge="1">
                    <mxGeometry relative="1" as="geometry"/>
                </mxCell>
                <mxCell id="oO5KlpTl5panV6UwtfpN-31" value="8" style="edgeLabel;html=1;align=center;verticalAlign=middle;resizable=0;points=[];fontSize=14;" parent="oO5KlpTl5panV6UwtfpN-5" vertex="1" connectable="0">
                    <mxGeometry relative="1" as="geometry">
                        <mxPoint as="offset"/>
                    </mxGeometry>
                </mxCell>
                <object label="0" in="1" out="1" weight="" id="oO5KlpTl5panV6UwtfpN-1">
                    <mxCell style="ellipse;whiteSpace=wrap;html=1;aspect=fixed;align=center;" parent="1" vertex="1">
                        <mxGeometry x="200" y="530" width="30" height="30" as="geometry"/>
                    </mxCell>
                </object>
                <mxCell id="oO5KlpTl5panV6UwtfpN-12" style="edgeStyle=none;rounded=0;orthogonalLoop=1;jettySize=auto;html=1;entryX=0;entryY=0.5;entryDx=0;entryDy=0;shape=link;align=center;" parent="1" source="oO5KlpTl5panV6UwtfpN-2" target="oO5KlpTl5panV6UwtfpN-6" edge="1">
                    <mxGeometry relative="1" as="geometry"/>
                </mxCell>
                <mxCell id="oO5KlpTl5panV6UwtfpN-27" value="8" style="edgeLabel;html=1;align=center;verticalAlign=middle;resizable=0;points=[];fontSize=14;" parent="oO5KlpTl5panV6UwtfpN-12" vertex="1" connectable="0">
                    <mxGeometry relative="1" as="geometry">
                        <mxPoint x="-11" y="2" as="offset"/>
                    </mxGeometry>
                </mxCell>
                <mxCell id="oO5KlpTl5panV6UwtfpN-25" style="edgeStyle=none;shape=link;rounded=0;orthogonalLoop=1;jettySize=auto;html=1;entryX=0.5;entryY=0;entryDx=0;entryDy=0;strokeColor=default;align=center;" parent="1" source="oO5KlpTl5panV6UwtfpN-2" target="oO5KlpTl5panV6UwtfpN-3" edge="1">
                    <mxGeometry relative="1" as="geometry"/>
                </mxCell>
                <mxCell id="oO5KlpTl5panV6UwtfpN-32" value="11" style="edgeLabel;html=1;align=center;verticalAlign=middle;resizable=0;points=[];fontSize=14;" parent="oO5KlpTl5panV6UwtfpN-25" vertex="1" connectable="0">
                    <mxGeometry relative="1" as="geometry">
                        <mxPoint as="offset"/>
                    </mxGeometry>
                </mxCell>
                <object label="1" in="1" out="1" weight="" id="oO5KlpTl5panV6UwtfpN-2">
                    <mxCell style="ellipse;whiteSpace=wrap;html=1;aspect=fixed;align=center;" parent="1" vertex="1">
                        <mxGeometry x="270" y="460" width="30" height="30" as="geometry"/>
                    </mxCell>
                </object>
                <mxCell id="oO5KlpTl5panV6UwtfpN-16" style="edgeStyle=none;rounded=0;orthogonalLoop=1;jettySize=auto;html=1;entryX=0;entryY=0.5;entryDx=0;entryDy=0;shape=link;align=center;" parent="1" source="oO5KlpTl5panV6UwtfpN-3" target="oO5KlpTl5panV6UwtfpN-8" edge="1">
                    <mxGeometry relative="1" as="geometry"/>
                </mxCell>
                <mxCell id="oO5KlpTl5panV6UwtfpN-23" style="edgeStyle=none;shape=link;rounded=0;orthogonalLoop=1;jettySize=auto;html=1;entryX=0;entryY=0.5;entryDx=0;entryDy=0;strokeColor=default;align=center;" parent="1" source="oO5KlpTl5panV6UwtfpN-3" target="oO5KlpTl5panV6UwtfpN-7" edge="1">
                    <mxGeometry relative="1" as="geometry"/>
                </mxCell>
                <mxCell id="oO5KlpTl5panV6UwtfpN-33" value="7" style="edgeLabel;html=1;align=center;verticalAlign=middle;resizable=0;points=[];fontSize=14;" parent="oO5KlpTl5panV6UwtfpN-23" vertex="1" connectable="0">
                    <mxGeometry relative="1" as="geometry">
                        <mxPoint as="offset"/>
                    </mxGeometry>
                </mxCell>
                <object label="7" in="1" out="1" weight="" id="oO5KlpTl5panV6UwtfpN-3">
                    <mxCell style="ellipse;whiteSpace=wrap;html=1;aspect=fixed;align=center;" parent="1" vertex="1">
                        <mxGeometry x="270" y="610" width="30" height="30" as="geometry"/>
                    </mxCell>
                </object>
                <mxCell id="oO5KlpTl5panV6UwtfpN-13" value="" style="rounded=0;orthogonalLoop=1;jettySize=auto;html=1;entryX=0;entryY=0.5;entryDx=0;entryDy=0;shape=link;align=center;" parent="1" source="oO5KlpTl5panV6UwtfpN-6" target="oO5KlpTl5panV6UwtfpN-9" edge="1">
                    <mxGeometry relative="1" as="geometry"/>
                </mxCell>
                <mxCell id="oO5KlpTl5panV6UwtfpN-29" value="7" style="edgeLabel;html=1;align=center;verticalAlign=middle;resizable=0;points=[];fontSize=14;" parent="oO5KlpTl5panV6UwtfpN-13" vertex="1" connectable="0">
                    <mxGeometry relative="1" as="geometry">
                        <mxPoint as="offset"/>
                    </mxGeometry>
                </mxCell>
                <mxCell id="oO5KlpTl5panV6UwtfpN-18" style="edgeStyle=none;rounded=0;orthogonalLoop=1;jettySize=auto;html=1;entryX=0.5;entryY=0;entryDx=0;entryDy=0;shape=link;align=center;" parent="1" source="oO5KlpTl5panV6UwtfpN-6" target="oO5KlpTl5panV6UwtfpN-7" edge="1">
                    <mxGeometry relative="1" as="geometry"/>
                </mxCell>
                <mxCell id="oO5KlpTl5panV6UwtfpN-34" value="2" style="edgeLabel;html=1;align=center;verticalAlign=middle;resizable=0;points=[];fontSize=14;" parent="oO5KlpTl5panV6UwtfpN-18" vertex="1" connectable="0">
                    <mxGeometry relative="1" as="geometry">
                        <mxPoint as="offset"/>
                    </mxGeometry>
                </mxCell>
                <mxCell id="oO5KlpTl5panV6UwtfpN-24" style="edgeStyle=none;shape=link;rounded=0;orthogonalLoop=1;jettySize=auto;html=1;entryX=0;entryY=0;entryDx=0;entryDy=0;strokeColor=default;align=center;" parent="1" source="oO5KlpTl5panV6UwtfpN-6" target="oO5KlpTl5panV6UwtfpN-10" edge="1">
                    <mxGeometry relative="1" as="geometry"/>
                </mxCell>
                <mxCell id="oO5KlpTl5panV6UwtfpN-36" value="4" style="edgeLabel;html=1;align=center;verticalAlign=middle;resizable=0;points=[];fontSize=14;" parent="oO5KlpTl5panV6UwtfpN-24" vertex="1" connectable="0">
                    <mxGeometry relative="1" as="geometry">
                        <mxPoint x="1" as="offset"/>
                    </mxGeometry>
                </mxCell>
                <object label="2" in="1" out="1" weight="" id="oO5KlpTl5panV6UwtfpN-6">
                    <mxCell style="ellipse;whiteSpace=wrap;html=1;aspect=fixed;align=center;" parent="1" vertex="1">
                        <mxGeometry x="390" y="460" width="30" height="30" as="geometry"/>
                    </mxCell>
                </object>
                <mxCell id="oO5KlpTl5panV6UwtfpN-21" value="6" style="edgeStyle=none;rounded=0;orthogonalLoop=1;jettySize=auto;html=1;entryX=0.5;entryY=0;entryDx=0;entryDy=0;shape=link;strokeColor=default;align=center;" parent="1" source="oO5KlpTl5panV6UwtfpN-7" target="oO5KlpTl5panV6UwtfpN-8" edge="1">
                    <mxGeometry relative="1" as="geometry"/>
                </mxCell>
                <object label="8" in="1" out="1" weight="" id="oO5KlpTl5panV6UwtfpN-7">
                    <mxCell style="ellipse;whiteSpace=wrap;html=1;aspect=fixed;align=center;" parent="1" vertex="1">
                        <mxGeometry x="390" y="540" width="30" height="30" as="geometry"/>
                    </mxCell>
                </object>
                <mxCell id="oO5KlpTl5panV6UwtfpN-17" style="edgeStyle=none;rounded=0;orthogonalLoop=1;jettySize=auto;html=1;entryX=0;entryY=0.5;entryDx=0;entryDy=0;shape=link;align=center;" parent="1" source="oO5KlpTl5panV6UwtfpN-8" target="oO5KlpTl5panV6UwtfpN-10" edge="1">
                    <mxGeometry relative="1" as="geometry"/>
                </mxCell>
                <mxCell id="oO5KlpTl5panV6UwtfpN-35" value="2" style="edgeLabel;html=1;align=center;verticalAlign=middle;resizable=0;points=[];fontSize=14;" parent="oO5KlpTl5panV6UwtfpN-17" vertex="1" connectable="0">
                    <mxGeometry relative="1" as="geometry">
                        <mxPoint as="offset"/>
                    </mxGeometry>
                </mxCell>
                <object label="6" in="1" out="1" weight="" id="oO5KlpTl5panV6UwtfpN-8">
                    <mxCell style="ellipse;whiteSpace=wrap;html=1;aspect=fixed;align=center;" parent="1" vertex="1">
                        <mxGeometry x="390" y="610" width="30" height="30" as="geometry"/>
                    </mxCell>
                </object>
                <mxCell id="oO5KlpTl5panV6UwtfpN-14" style="edgeStyle=none;rounded=0;orthogonalLoop=1;jettySize=auto;html=1;entryX=0;entryY=0;entryDx=0;entryDy=0;shape=link;align=center;" parent="1" source="oO5KlpTl5panV6UwtfpN-9" target="oO5KlpTl5panV6UwtfpN-11" edge="1">
                    <mxGeometry relative="1" as="geometry"/>
                </mxCell>
                <mxCell id="oO5KlpTl5panV6UwtfpN-38" value="9" style="edgeLabel;html=1;align=center;verticalAlign=middle;resizable=0;points=[];fontSize=14;" parent="oO5KlpTl5panV6UwtfpN-14" vertex="1" connectable="0">
                    <mxGeometry relative="1" as="geometry">
                        <mxPoint as="offset"/>
                    </mxGeometry>
                </mxCell>
                <mxCell id="oO5KlpTl5panV6UwtfpN-26" style="edgeStyle=none;shape=link;rounded=0;orthogonalLoop=1;jettySize=auto;html=1;entryX=0.5;entryY=0;entryDx=0;entryDy=0;strokeColor=default;align=center;" parent="1" source="oO5KlpTl5panV6UwtfpN-9" target="oO5KlpTl5panV6UwtfpN-10" edge="1">
                    <mxGeometry relative="1" as="geometry"/>
                </mxCell>
                <mxCell id="oO5KlpTl5panV6UwtfpN-37" value="14" style="edgeLabel;html=1;align=center;verticalAlign=middle;resizable=0;points=[];fontSize=14;" parent="oO5KlpTl5panV6UwtfpN-26" vertex="1" connectable="0">
                    <mxGeometry relative="1" as="geometry">
                        <mxPoint as="offset"/>
                    </mxGeometry>
                </mxCell>
                <object label="3" in="1" out="1" weight="" id="oO5KlpTl5panV6UwtfpN-9">
                    <mxCell style="ellipse;whiteSpace=wrap;html=1;aspect=fixed;align=center;" parent="1" vertex="1">
                        <mxGeometry x="540" y="460" width="30" height="30" as="geometry"/>
                    </mxCell>
                </object>
                <mxCell id="oO5KlpTl5panV6UwtfpN-15" style="edgeStyle=none;rounded=0;orthogonalLoop=1;jettySize=auto;html=1;entryX=0;entryY=1;entryDx=0;entryDy=0;shape=link;align=center;" parent="1" source="oO5KlpTl5panV6UwtfpN-10" target="oO5KlpTl5panV6UwtfpN-11" edge="1">
                    <mxGeometry relative="1" as="geometry"/>
                </mxCell>
                <mxCell id="oO5KlpTl5panV6UwtfpN-39" value="10" style="edgeLabel;html=1;align=center;verticalAlign=middle;resizable=0;points=[];fontSize=14;" parent="oO5KlpTl5panV6UwtfpN-15" vertex="1" connectable="0">
                    <mxGeometry relative="1" as="geometry">
                        <mxPoint as="offset"/>
                    </mxGeometry>
                </mxCell>
                <object label="5" in="1" out="1" weight="" id="oO5KlpTl5panV6UwtfpN-10">
                    <mxCell style="ellipse;whiteSpace=wrap;html=1;aspect=fixed;align=center;" parent="1" vertex="1">
                        <mxGeometry x="540" y="610" width="30" height="30" as="geometry"/>
                    </mxCell>
                </object>
                <object label="4" in="1" out="1" weight="" id="oO5KlpTl5panV6UwtfpN-11">
                    <mxCell style="ellipse;whiteSpace=wrap;html=1;aspect=fixed;align=center;" parent="1" vertex="1">
                        <mxGeometry x="610" y="530" width="30" height="30" as="geometry"/>
                    </mxCell>
                </object>
                <mxCell id="oO5KlpTl5panV6UwtfpN-40" value="最短路径问题" style="text;html=1;align=center;verticalAlign=middle;resizable=0;points=[];autosize=1;strokeColor=none;fillColor=none;fontSize=14;" parent="1" vertex="1">
                    <mxGeometry x="348" y="410" width="94" height="21" as="geometry"/>
                </mxCell>
                <mxCell id="3" value="1" style="edgeLabel;html=1;align=center;verticalAlign=middle;resizable=0;points=[];fontSize=14;" vertex="1" connectable="0" parent="1">
                    <mxGeometry x="354.07557089798684" y="539.9962860680088" as="geometry">
                        <mxPoint x="-11" y="83" as="offset"/>
                    </mxGeometry>
                </mxCell>
            </root>
        </mxGraphModel>
    </diagram>
</mxfile>